<?xml version="1.0" encoding="UTF-8"?>
<svg width="260px" height="571px" viewBox="0 0 260 571" version="1.1" xmlns="http://www.w3.org/2000/svg" xmlns:xlink="http://www.w3.org/1999/xlink">
    <title>Group</title>
    <g id="Page-2" stroke="none" stroke-width="1" fill="none" fill-rule="evenodd">
        <g id="Group" fill-rule="nonzero">
            <polygon id="cup" fill="#F4E7D8" points="11 171 251 171 231 571 31 571"></polygon>
            <path d="M81,244 C143.833333,244 144,271 217,271 C228.347138,271 237.85799,270.347635 246.092153,269.245712 L231,571 L31,571 L15.350617,258.002927 L20.3677593,255.930887 C35.5227936,249.74251 52.02262,244 81,244 Z" id="tea" fill="#F0D4B5"></path>
            <rect id="lid" fill="#3B3B3B" x="0" y="151" width="260" height="12"></rect>
            <polygon id="straw" fill="#3B3B3B" transform="translate(124.979227, 271.370018) scale(-1, 1) rotate(-6.000000) translate(-124.979227, -271.370018) " points="106.979227 1.37001797 142.979227 1.37001797 142.979227 541.370018 106.979227 527.330018"></polygon>
            <g id="bubbles" transform="translate(47.000000, 452.000000)" fill="#3B3B3B">
                <circle id="Oval" cx="40" cy="54" r="18"></circle>
                <circle id="Oval" cx="84" cy="54" r="18"></circle>
                <circle id="Oval" cx="128" cy="54" r="18"></circle>
                <circle id="Oval" cx="18" cy="18" r="18"></circle>
                <circle id="Oval" cx="62" cy="18" r="18"></circle>
                <circle id="Oval" cx="106" cy="18" r="18"></circle>
                <circle id="Oval" cx="150" cy="18" r="18"></circle>
                <circle id="Oval" cx="18" cy="90" r="18"></circle>
                <circle id="Oval" cx="62" cy="90" r="18"></circle>
                <circle id="Oval" cx="106" cy="90" r="18"></circle>
                <circle id="Oval" cx="150" cy="90" r="18"></circle>
            </g>
        </g>
    </g>
</svg>